<svg xmlns="http://www.w3.org/2000/svg" style="display:none">
  <symbol id="icon-mic" viewBox="0 0 24 24"><rect x="9" y="2" width="6" height="11" rx="3"/><path d="M5 10a7 7 0 0 0 14 0"/><path d="M12 18v4"/><path d="M8 22h8"/></symbol>
  <symbol id="icon-calendar" viewBox="0 0 24 24"><rect x="3" y="4" width="18" height="18" rx="2"/><path d="M16 2v4M8 2v4M3 10h18"/></symbol>
  <symbol id="icon-clock" viewBox="0 0 24 24"><circle cx="12" cy="12" r="9"/><path d="M12 7v5l3 2"/></symbol>
  <symbol id="icon-gift" viewBox="0 0 24 24"><rect x="3" y="8" width="18" height="13" rx="1"/><path d="M12 8v13M3 12h18"/><path d="M12 8c-2-3-6-3-6 0s4 3 6 0M12 8c2-3 6-3 6 0s-4 3-6 0"/><path d="M2 8h20"/></symbol>
  <symbol id="icon-medal" viewBox="0 0 24 24"><circle cx="12" cy="9" r="5"/><path d="M8.5 14 7 22l5-2.5L17 22l-1.5-8"/></symbol>
  <symbol id="icon-zap" viewBox="0 0 24 24"><path d="M13 2 3 14h8l-1 8 10-12h-8l1-8z"/></symbol>
  <symbol id="icon-lock" viewBox="0 0 24 24"><rect x="5" y="11" width="14" height="10" rx="2"/><path d="M8 11V7a4 4 0 0 1 8 0v4"/></symbol>
  <symbol id="icon-radio" viewBox="0 0 24 24"><circle cx="12" cy="12" r="2"/><path d="M16.24 7.76a6 6 0 0 1 0 8.49M7.76 7.76a6 6 0 0 0 0 8.49M19.07 4.93a10 10 0 0 1 0 14.14M4.93 4.93a10 10 0 0 0 0 14.14"/></symbol>
  <symbol id="icon-headphones" viewBox="0 0 24 24"><path d="M3 14v3a2 2 0 0 0 2 2h1V12H5a2 2 0 0 0-2 2zM21 14v3a2 2 0 0 1-2 2h-1V12h2a2 2 0 0 1 2 2z"/><path d="M3 14a9 9 0 0 1 18 0"/></symbol>
  <symbol id="icon-building" viewBox="0 0 24 24"><path d="M3 21h18M5 21V7l8-4v18M19 21V11l-6-4"/><path d="M9 9h.01M9 13h.01M9 17h.01"/></symbol>
  <symbol id="icon-trophy" viewBox="0 0 24 24"><path d="M8 21h8M12 17v4M7 4h10v5a5 5 0 0 1-10 0V4zM5 5H3v2a3 3 0 0 0 3 3M19 5h2v2a3 3 0 0 1-3 3"/></symbol>
  <symbol id="icon-graduation" viewBox="0 0 24 24"><path d="M22 10 12 5 2 10l10 5 10-5z"/><path d="M6 12v5c0 1.7 2.7 3 6 3s6-1.3 6-3v-5"/></symbol>
  <symbol id="icon-ring" viewBox="0 0 24 24"><circle cx="12" cy="14" r="5"/><path d="M12 9V3M9 3h6"/></symbol>
  <symbol id="icon-megaphone" viewBox="0 0 24 24"><path d="m3 11 18-5v12L3 14v-3z"/><path d="M11 14v4a2 2 0 0 0 4 0v-1"/></symbol>
  <symbol id="icon-film" viewBox="0 0 24 24"><rect x="2" y="4" width="20" height="16" rx="2"/><path d="M7 4v16M17 4v16M2 9h5M2 15h5M17 9h5M17 15h5"/></symbol>
  <symbol id="icon-book" viewBox="0 0 24 24"><path d="M4 19.5A2.5 2.5 0 0 1 6.5 17H20"/><path d="M6.5 2H20v20H6.5A2.5 2.5 0 0 1 4 19.5v-15A2.5 2.5 0 0 1 6.5 2z"/></symbol>
  <symbol id="icon-file-text" viewBox="0 0 24 24"><path d="M14 2H6a2 2 0 0 0-2 2v16a2 2 0 0 0 2 2h12a2 2 0 0 0 2-2V8z"/><path d="M14 2v6h6M16 13H8M16 17H8M10 9H8"/></symbol>
  <symbol id="icon-mail" viewBox="0 0 24 24"><rect x="2" y="4" width="20" height="16" rx="2"/><path d="m22 7-8.97 5.7a1.94 1.94 0 0 1-2.06 0L2 7"/></symbol>
  <symbol id="icon-activity" viewBox="0 0 24 24"><path d="M22 12h-4l-3 9L9 3l-3 9H2"/></symbol>
  <symbol id="icon-user" viewBox="0 0 24 24"><circle cx="12" cy="8" r="4"/><path d="M4 20c0-4 3.6-7 8-7s8 3 8 7"/></symbol>
  <symbol id="icon-alert" viewBox="0 0 24 24"><path d="M10.29 3.86 1.82 18a2 2 0 0 0 1.71 3h16.94a2 2 0 0 0 1.71-3L13.71 3.86a2 2 0 0 0-3.42 0z"/><path d="M12 9v4M12 17h.01"/></symbol>
  <symbol id="icon-check" viewBox="0 0 24 24"><path d="M20 6 9 17l-5-5"/></symbol>
  <symbol id="icon-check-circle" viewBox="0 0 24 24"><circle cx="12" cy="12" r="10"/><path d="m9 12 2 2 4-4"/></symbol>
  <symbol id="icon-flame" viewBox="0 0 24 24"><path d="M8.5 14.5A2.5 2.5 0 0 0 11 12c0-1.5 1.5-3 1.5-5.5C12.5 4 10 2 10 2s-2 2.5-2 5c0 2 1 3.5 1 5a2.5 2.5 0 0 0 4.5 1.5c1-1.2 1.5-2.5 1.5-4 0-2.5-2-4.5-2-4.5S8 6.5 8 9c0 1.5.5 2.5 1.5 3.5z"/></symbol>
  <symbol id="icon-landmark" viewBox="0 0 24 24"><path d="M3 21h18M6 21V9l6-4 6 4v12"/><path d="M10 21v-4h4v4"/></symbol>
  <symbol id="icon-book-open" viewBox="0 0 24 24"><path d="M2 3h6a4 4 0 0 1 4 4v14a3 3 0 0 0-3-3H2zM22 3h-6a4 4 0 0 0-4 4v14a3 3 0 0 1 3-3h7z"/></symbol>
  <symbol id="icon-globe" viewBox="0 0 24 24"><circle cx="12" cy="12" r="10"/><path d="M2 12h20M12 2a15.3 15.3 0 0 1 4 10 15.3 15.3 0 0 1-4 10 15.3 15.3 0 0 1-4-10 15.3 15.3 0 0 1 4-10z"/></symbol>
  <symbol id="icon-theater" viewBox="0 0 24 24"><path d="M2 12h20M7 12v5M17 12v5M12 7v10M7 7h10v5H7z"/></symbol>
  <symbol id="icon-smartphone" viewBox="0 0 24 24"><rect x="7" y="2" width="10" height="20" rx="2"/><path d="M12 18h.01"/></symbol>
  <symbol id="icon-home" viewBox="0 0 24 24"><path d="m3 9 9-7 9 7v11a2 2 0 0 1-2 2H5a2 2 0 0 1-2-2z"/><path d="M9 22V12h6v10"/></symbol>
  <symbol id="icon-briefcase" viewBox="0 0 24 24"><rect x="2" y="7" width="20" height="14" rx="2"/><path d="M16 7V5a2 2 0 0 0-2-2h-4a2 2 0 0 0-2 2v2"/></symbol>
  <symbol id="icon-quote" viewBox="0 0 24 24"><path d="M3 12h4a4 4 0 0 1 4 4v4H3v-8zM13 12h4a4 4 0 0 1 4 4v4h-8v-8z"/></symbol>
  <symbol id="icon-stage" viewBox="0 0 24 24"><path d="M12 3v18M8 21h8M4 8l8-5 8 5"/></symbol>
  <symbol id="icon-star" viewBox="0 0 24 24"><path d="M12 2l2.4 4.9 5.4.8-3.9 3.8.9 5.3L12 14.8 7.2 16.8l.9-5.3L4.2 7.7l5.4-.8L12 2z"/></symbol>
</svg>
